<svg id="Слой_4" data-name="Слой 4" xmlns="http://www.w3.org/2000/svg" viewBox="0 0 180 130"><defs><style>.cls-1{fill:#f86630;}.cls-2{fill:#a42c1e;}.cls-3{fill:#fff;}.cls-4{fill:none;stroke:#fff;stroke-miterlimit:10;stroke-width:2px;}</style></defs><title>Монтажная область 1</title><path class="cls-1" d="M140.33,18.23c-19.72-.51-48.83-.32-50.33-.31s-30.61-.21-50.33.31C19.41,18.76,22,43.84,22,43.84L27.16,91h123L158,43.84s2.64-25.08-17.62-25.61"/><path class="cls-1" d="M50,112H38a2,2,0,0,1-2-2V100H52v9.92A2,2,0,0,1,50,112"/><path class="cls-1" d="M142,112H130a2,2,0,0,1-2-2V100h16v9.92a2,2,0,0,1-2,2.08"/><path class="cls-2" d="M90,103.87c-16,0-32,.06-47.93,0A28.6,28.6,0,0,1,14.86,84c-3.59-11.38-7-22.83-10.38-34.27-.89-3,.19-5.09,3.13-6.06l.71-.23q2.37-.77,4.77-1.46,1.81-.52,3.62-1a4.35,4.35,0,0,1,5.71,3.22c3.37,11,6.75,22,10,33,1.58,5.29,5,6.78,10.45,6.78H138c4.39,0,8.25-1.72,9.52-5.92q5-16.67,10.12-33.33c1-3.31,3-4.45,6.33-3.56,2.93.78,5.85,1.63,8.72,2.6s4,3.22,3,6.29c-3.45,11.29-6.76,22.63-10.35,33.87-3.34,10.47-10.73,16.77-21.3,19.37a28.79,28.79,0,0,1-6.72.65c-15.78.05-31.56,0-47.34,0Z"/><path class="cls-3" d="M115.93,53.69a4,4,0,1,1,4-4,4,4,0,0,1-4,4"/><circle class="cls-4" cx="115.97" cy="49.69" r="4" transform="translate(65.17 165.18) rotate(-89.46)"/><path class="cls-3" d="M63.93,53.69a4,4,0,1,1,4-4,4,4,0,0,1-4,4"/><circle class="cls-4" cx="63.97" cy="49.69" r="4" transform="translate(13.67 113.18) rotate(-89.46)"/></svg>