<svg id="Слой_5" data-name="Слой 5" xmlns="http://www.w3.org/2000/svg" viewBox="0 0 180 130"><defs><style>.cls-1{fill:#f86630;}.cls-2{fill:#a42c1e;}.cls-3{fill:#fff;}</style></defs><title>Монтажная область 1</title><path class="cls-1" d="M87.11,72.65l10,46.4a2.45,2.45,0,0,0,3.83,1.48l9.56-6.85a2.45,2.45,0,0,1,1.68-.45l11.64,1.2a2.45,2.45,0,0,0,2.62-3.08L113.79,64Z"/><path class="cls-1" d="M92.55,72.65l-10,46.4a2.45,2.45,0,0,1-3.83,1.48l-9.56-6.85a2.45,2.45,0,0,0-1.68-.45l-11.64,1.2a2.45,2.45,0,0,1-2.62-3.08L65.87,64Z"/><path class="cls-2" d="M132.5,51.51A42.5,42.5,0,1,1,90,9a42.5,42.5,0,0,1,42.5,42.5"/><path class="cls-3" d="M91.16,29.68l5.49,11.11a2.59,2.59,0,0,0,1.95,1.42L110.86,44a1.29,1.29,0,0,1,.72,2.21l-8.87,8.65a2.58,2.58,0,0,0-.74,2.29l2.1,12.22a1.29,1.29,0,0,1-1.88,1.36L91.2,65a2.59,2.59,0,0,0-2.41,0l-11,5.77a1.29,1.29,0,0,1-1.88-1.36L78,57.14a2.58,2.58,0,0,0-.74-2.29L68.42,46.2A1.29,1.29,0,0,1,69.14,44l12.27-1.78a2.59,2.59,0,0,0,1.95-1.42l5.48-11.11a1.3,1.3,0,0,1,2.32,0"/></svg>