<svg id="Слой_6" data-name="Слой 6" xmlns="http://www.w3.org/2000/svg" viewBox="0 0 180 130"><defs><style>.cls-1{fill:#a42c1e;}.cls-2{fill:#f86630;}.cls-3{fill:#fff;}</style></defs><title>Монтажная область 1</title><path class="cls-1" d="M127,30,65.5,93.23,88.43,116.1a4.63,4.63,0,0,0,6.55,0l50.8-51.19a4.22,4.22,0,0,0,1.22-3V32.11A2.11,2.11,0,0,0,144.89,30Z"/><path class="cls-2" d="M90.44,13.24,34,69.68a4.22,4.22,0,0,0,0,6L69.34,111a4.22,4.22,0,0,0,6,0l56.45-56.45a4.23,4.23,0,0,0,1.24-3V14.11A2.11,2.11,0,0,0,130.89,12H93.43a4.23,4.23,0,0,0-3,1.24"/><circle class="cls-3" cx="111.4" cy="34.01" r="5" transform="translate(76.33 145.08) rotate(-89.46)"/></svg>